<?xml version="1.0" standalone="no"?><!DOCTYPE svg PUBLIC "-//W3C//DTD SVG 1.1//EN" "http://www.w3.org/Graphics/SVG/1.1/DTD/svg11.dtd"><svg t="1681695033953" class="icon" viewBox="0 0 1024 1024" version="1.1" xmlns="http://www.w3.org/2000/svg" p-id="3806" width="16" height="16" xmlns:xlink="http://www.w3.org/1999/xlink"><path d="M822.1 357.9h-589c-36.6 0-66.3-29.7-66.3-66.3V218c0-36.6 29.7-66.3 66.3-66.3h589c36.6 0 66.3 29.7 66.3 66.3v73.6c0 36.6-29.8 66.3-66.3 66.3z m-589-173c-18.2 0-33.1 14.9-33.1 33.1v73.6c0 18.2 14.9 33.1 33.1 33.1h589c18.2 0 33.1-14.9 33.1-33.1V218c0-18.2-14.9-33.1-33.1-33.1h-589z m589 443.3h-589c-36.6 0-66.3-29.7-66.3-66.3v-73.7c0-36.6 29.7-66.3 66.3-66.3h589c36.6 0 66.3 29.7 66.3 66.3v73.7c0 36.6-29.8 66.3-66.3 66.3z m-589-173.1c-18.2 0-33.1 14.8-33.1 33.1v73.7c0 18.2 14.8 33.1 33.1 33.1h589c18.2 0 33.1-14.8 33.1-33.1v-73.7c0-18.2-14.8-33.1-33.1-33.1h-589z m589 443.4H233c-36.5 0-66.3-29.7-66.3-66.3v-73.7c0-36.5 29.7-66.3 66.3-66.3h589.1c36.5 0 66.3 29.7 66.3 66.3v73.7c-0.1 36.5-29.8 66.3-66.3 66.3zM233 725.4c-18.2 0-33.1 14.8-33.1 33.1v73.7c0 18.2 14.8 33 33.1 33h589.1c18.2 0 33.1-14.8 33.1-33v-73.7c0-18.2-14.8-33.1-33.1-33.1H233z m71.9-503.8c-18.3 0-33.2 14.9-33.2 33.2s14.9 33.2 33.2 33.2c18.3 0 33.2-14.9 33.2-33.2s-14.8-33.2-33.2-33.2z m0 270.3c-18.3 0-33.2 14.9-33.2 33.2 0 18.3 14.9 33.2 33.2 33.2 18.3 0 33.2-14.9 33.2-33.2 0-18.4-14.8-33.2-33.2-33.2z m0 270.2c-18.3 0-33.2 14.9-33.2 33.2 0 18.3 14.9 33.2 33.2 33.2 18.3 0 33.2-14.9 33.2-33.2 0-18.3-14.8-33.2-33.2-33.2z" p-id="3807" fill="#f1f1f1"></path></svg>