<?xml version="1.0" standalone="no"?><!DOCTYPE svg PUBLIC "-//W3C//DTD SVG 1.1//EN" "http://www.w3.org/Graphics/SVG/1.1/DTD/svg11.dtd"><svg t="1681695165695" class="icon" viewBox="0 0 1024 1024" version="1.1" xmlns="http://www.w3.org/2000/svg" p-id="4614" width="16" height="16" xmlns:xlink="http://www.w3.org/1999/xlink"><path d="M836.8 485.1c-45.7-32.9-100.5-50.5-156.8-50.4-148.4 0-268.8 120.3-268.8 268.7 0 80.3 35.2 152.3 91 201.5H164.8c-24.7 0-44.8-20-44.8-44.7V143.5c0-24.7 20.1-44.8 44.8-44.8H792c24.7 0 44.8 20.1 44.8 44.8v341.6z m-29.5 265.1h7.6c5.9 0 11.6-2.4 15.9-6.6 4.2-4.2 6.6-9.9 6.6-15.8V683c0-5.9-2.4-11.6-6.6-15.8-4.2-4.2-9.9-6.6-15.9-6.6h-7.6c-5.5-15.6-13.9-30-24.6-42.6l3.8-6.7c6.2-10.7 2.5-24.4-8.2-30.6l-38.8-22.4c-10.7-6.2-24.4-2.5-30.6 8.2l-3.8 6.6c-16.3-3-32.9-3-49.2 0l-3.8-6.6c-3-5.2-7.9-8.9-13.6-10.5-5.7-1.5-11.9-0.7-17 2.2l-38.8 22.4c-10.7 6.2-14.4 19.9-8.2 30.6l3.8 6.7c-10.8 12.6-19.1 27-24.6 42.6h-7.6c-5.9 0-11.6 2.4-15.9 6.6-4.2 4.2-6.6 9.9-6.6 15.8v44.8c0 5.9 2.4 11.6 6.6 15.8 4.2 4.2 9.9 6.6 15.9 6.6h7.6c5.5 15.6 13.9 30 24.6 42.5l-3.8 6.7c-6.2 10.7-2.5 24.4 8.2 30.6l38.8 22.4c10.7 6.2 24.4 2.5 30.6-8.2l3.8-6.6c16.3 3 32.9 3 49.2 0l3.8 6.6c3 5.2 7.9 8.9 13.6 10.5 5.7 1.5 11.9 0.7 17-2.2l38.8-22.4c10.7-6.2 14.4-19.9 8.2-30.6l-3.8-6.7c10.7-12.5 19.1-26.9 24.6-42.5zM680 927.3c-123.7 0-224-100.2-224-223.9s100.3-223.9 224-223.9 224 100.3 224 223.9c0 123.6-100.3 223.9-224 223.9z m0.4-154.7c-37.1 0-67.2-30.1-67.2-67.3 0-37.1 30.1-67.2 67.2-67.2s67.3 30.1 67.3 67.2c0 37.2-30.1 67.3-67.3 67.3z m-426-427.5c-37.1 0-67.2 30.1-67.2 67.2V457H456v-44.8c0-17.8-7.1-34.9-19.7-47.5-12.6-12.6-29.7-19.7-47.5-19.7H254.4z m67.2-22.4c37.1 0 67.2-30.1 67.2-67.2s-30.1-67.2-67.2-67.2-67.2 30.1-67.2 67.2 30.1 67.2 67.2 67.2z m201.6-112c-8.2-0.4-16 3.8-20.2 10.9-4.2 7.1-4.2 15.9 0 23s12 11.3 20.2 10.9h201.6c8.2 0.4 16-3.8 20.2-10.9 4.2-7.1 4.2-15.9 0-23s-12-11.3-20.2-10.9H523.2z m-22.4 134.4c0 12.4 10 22.4 22.4 22.4h201.7c8.2 0.4 16-3.8 20.2-10.9 4.2-7.1 4.2-15.9 0-23s-12-11.3-20.2-10.9H523.2c-12.4 0-22.4 10-22.4 22.4z m0 0" p-id="4615" fill="#f1f1f1"></path></svg>