<?xml version="1.0" standalone="no"?><!DOCTYPE svg PUBLIC "-//W3C//DTD SVG 1.1//EN" "http://www.w3.org/Graphics/SVG/1.1/DTD/svg11.dtd"><svg t="1681695145780" class="icon" viewBox="0 0 1024 1024" version="1.1" xmlns="http://www.w3.org/2000/svg" p-id="3512" width="16" height="16" xmlns:xlink="http://www.w3.org/1999/xlink"><path d="M768 640h-85.333333v-128h213.333333v128h-85.333333v128h-42.666667v-128z m-213.333333-170.666667v128H128v-128h426.666667z m0 298.666667H128v-128h426.666667v128z m341.333333-341.333333H128V298.666667h768v128zM213.333333 341.333333v42.666667h42.666667V341.333333H213.333333z m85.333334 0v42.666667h42.666666V341.333333H298.666667z m-85.333334 170.666667v42.666667h42.666667v-42.666667H213.333333z m85.333334 0v42.666667h42.666666v-42.666667H298.666667z m-85.333334 170.666667v42.666666h42.666667v-42.666666H213.333333z m85.333334 0v42.666666h42.666666v-42.666666H298.666667z m384 42.666666h42.666666v42.666667h-42.666666v-42.666667z m-85.333334 0h42.666667v42.666667h-42.666667v-42.666667z" fill="#f1f1f1" p-id="3513"></path></svg>