<?xml version="1.0" standalone="no"?><!DOCTYPE svg PUBLIC "-//W3C//DTD SVG 1.1//EN" "http://www.w3.org/Graphics/SVG/1.1/DTD/svg11.dtd"><svg t="1681696021835" class="icon" viewBox="0 0 1031 1024" version="1.1" xmlns="http://www.w3.org/2000/svg" p-id="7085" width="16.109375" height="16" xmlns:xlink="http://www.w3.org/1999/xlink"><path d="M887.880704 921.6H314.440704c-15.36 0-25.6-10.24-25.6-25.6s10.24-25.6 25.6-25.6h578.56c46.08 0 81.92-35.84 81.92-81.92V261.12c0-46.08-35.84-81.92-81.92-81.92H140.360704c-46.08 0-81.92 35.84-81.92 81.92v358.4c0 15.36-10.24 25.6-25.6 25.6s-25.6-10.24-25.6-25.6v-358.4c0-76.8 61.44-138.24 138.24-138.24h747.52c76.8 0 138.24 61.44 138.24 138.24v517.12c-5.12 81.92-66.56 143.36-143.36 143.36z m0 0" fill="#f1f1f1" p-id="7086"></path><path d="M27.720704 875.52c-10.24 0-20.48-5.12-25.6-15.36-5.12-10.24 0-20.48 5.12-30.72l322.56-348.16c10.24-10.24 25.6-10.24 35.84-5.12l153.6 117.76 215.04-276.48c10.24-10.24 25.6-15.36 35.84-5.12 10.24 10.24 15.36 25.6 5.12 35.84l-230.4 302.08c-10.24 10.24-25.6 15.36-35.84 5.12l-158.72-117.76L48.200704 870.4c-5.12 5.12-10.24 5.12-20.48 5.12z m0 0" fill="#f1f1f1" p-id="7087"></path></svg>